<svg width="42" height="42" viewBox="0 0 42 42" fill="none" xmlns="http://www.w3.org/2000/svg">
<path d="M33.25 14C31.7917 14 30.5521 13.4896 29.5312 12.4688C28.5104 11.4479 28 10.2083 28 8.75C28 7.29167 28.5104 6.05208 29.5312 5.03125C30.5521 4.01042 31.7917 3.5 33.25 3.5C34.7083 3.5 35.9479 4.01042 36.9688 5.03125C37.9896 6.05208 38.5 7.29167 38.5 8.75C38.5 10.2083 37.9896 11.4479 36.9688 12.4688C35.9479 13.4896 34.7083 14 33.25 14ZM7 35C6.0375 35 5.21354 34.6573 4.52813 33.9719C3.84271 33.2865 3.5 32.4625 3.5 31.5V10.5C3.5 9.5375 3.84271 8.71354 4.52813 8.02813C5.21354 7.34271 6.0375 7 7 7H24.675C24.5583 7.58333 24.5 8.16667 24.5 8.75C24.5 9.33333 24.5583 9.91667 24.675 10.5C24.8792 11.4333 25.2146 12.301 25.6812 13.1031C26.1479 13.9052 26.7167 14.6125 27.3875 15.225L21 19.25L7 10.5V14L21 22.75L30.2313 16.975C30.7271 17.15 31.2229 17.2812 31.7188 17.3688C32.2146 17.4563 32.725 17.5 33.25 17.5C34.1833 17.5 35.1021 17.3542 36.0063 17.0625C36.9104 16.7708 37.7417 16.3333 38.5 15.75V31.5C38.5 32.4625 38.1573 33.2865 37.4719 33.9719C36.7865 34.6573 35.9625 35 35 35H7Z" fill="#1D1B20"/>
</svg>
